<?xml version="1.0" standalone="no"?>
<!DOCTYPE svg PUBLIC "-//W3C//DTD SVG 20010904//EN"
 "http://www.w3.org/TR/2001/REC-SVG-20010904/DTD/svg10.dtd">
<svg version="1.0" xmlns="http://www.w3.org/2000/svg"
 width="300.000000pt" height="300.000000pt" viewBox="0 0 300.000000 300.000000"
 preserveAspectRatio="xMidYMid meet">
<metadata>
Created by potrace 1.14, written by Peter Selinger 2001-2017
</metadata>
<g transform="translate(0.000000,300.000000) scale(0.100000,-0.100000)"
fill="#000000" stroke="none">
<path d="M1378 2165 c-2 -2 -32 -6 -68 -10 -178 -18 -363 -86 -456 -168 -98
-86 -137 -176 -141 -324 -3 -138 6 -169 118 -384 174 -330 392 -551 567 -574
99 -13 90 6 90 -177 -1 -176 -5 -196 -43 -232 -14 -13 -25 -33 -25 -44 0 -16
-15 -26 -67 -46 -38 -15 -77 -34 -88 -44 -27 -23 -47 -68 -52 -119 l-5 -43
415 0 c229 0 418 3 421 8 8 13 -29 107 -54 140 -23 28 -75 59 -110 66 -8 2
-31 6 -50 10 -19 4 -44 8 -55 10 -11 2 -21 9 -21 17 -1 8 -2 22 -3 32 0 9 -7
17 -13 17 -10 0 -13 28 -12 108 0 59 -3 124 -7 145 -4 22 -2 37 4 37 6 0 6 4
0 13 -6 6 -13 37 -17 67 -3 30 -8 67 -11 81 -4 22 4 32 58 71 77 57 227 213
227 237 0 5 4 11 8 13 8 3 72 95 72 104 0 2 11 21 24 42 32 52 91 205 108 282
30 135 18 276 -34 387 -31 68 -129 161 -212 201 -56 27 -178 62 -256 72 -26 3
-309 8 -312 5z"/>
</g>
</svg>
